<?xml version="1.0" encoding="utf-8"?>
<!-- Generator: Adobe Illustrator 23.0.1, SVG Export Plug-In . SVG Version: 6.00 Build 0)  -->
<svg version="1.1" id="Layer_1" xmlns="http://www.w3.org/2000/svg" xmlns:xlink="http://www.w3.org/1999/xlink" x="0px" y="0px"
	 viewBox="0 0 153.91 57.96" style="enable-background:new 0 0 153.91 57.96;" xml:space="preserve">
<style type="text/css">
	.st0{fill:#65B2E8;}
	.st1{fill:#FFFFFF;}
</style>
<g>
	<path class="st0" d="M33.11,33.08c0.17-0.01,2.64,0.1,8.32-1.76c5.68-1.86,12.72-4.5,22.22-11.65C73.15,12.53,79.52,6.84,84.22,4.3
		c4.7-2.54,10.65-5.47,17.21-3.81c6.56,1.66,8.44,5.91,8.91,7.63c0.6,2.25,0.29,6.36-2.35,10.37c-2.64,4.01-6.36,7.73-8.32,9.1
		c-1.96,1.37-2.74,1.17-1.96,0.59c0.78-0.59,2.35-1.96,4.8-4.6c2.45-2.64,5.34-6.18,6.17-8.91c0.76-2.51,1.24-5.77-2.35-8.61
		c-3.68-2.92-9.01-3.92-13.9-2.45c-4.89,1.47-9.95,4.08-15.37,8.22c-5.57,4.26-12.53,10.57-18.54,14.28
		c-5.9,3.65-10.62,5.88-14.15,7.05c-3.52,1.17,1.57,0.2,5.09-1.08c3.52-1.27,8.32-3.33,14.49-7.44
		c6.17-4.11,16.46-10.55,20.57-12.82c5.8-3.2,11.14-4.31,14.67-3.92c3.52,0.39,5.49,1.67,6.44,3.29c0.99,1.69,0.31,3.66-0.37,5.52
		c-0.68,1.86-1.57,3.13-1.96,3.62c-0.39,0.49-0.49-0.1,0-0.78c0.49-0.69,0.98-1.57,1.27-2.54c0.29-0.98,0.35-3.13-0.74-4.45
		c-1.06-1.28-2.45-1.81-5.36-2.06c-2.93-0.25-6.69,0.5-8.38,1.12c-1.74,0.64-7.44,2.91-13.21,6.73
		c-5.77,3.82-13.31,9.42-17.62,11.97c-4.31,2.54-9.98,5.19-14,5.87c-3.3,0.56-6.07,0.76-7.87,0.55c-0.67-0.07-2.04-0.31-2.9-1.02
		c-0.32-0.26-0.6-0.18-0.99-0.26c-0.57-0.12-0.68-2.15-0.62-2.21C32.87,33.28,32.94,33.09,33.11,33.08"/>
	<path class="st0" d="M93.83,23.47c0.09-0.06,0.22-0.31,0-0.38c-0.22-0.06-7.25,0.6-8.29,3.62c-1.04,3.03,1.51,4.73,8.1,5.51
		c6.59,0.79,12.51,0.06,16.42-0.66c3.91-0.73,6.37-1.58,6.9-1.76c0.54-0.19,0.77-0.32,0.89-0.42c0.11-0.08,0.07-0.17-0.09-0.15
		c-0.18,0.02-10.2,1.76-15.11,1.95c-4.92,0.19-13.71-0.5-15.72-3.31c-0.72-1-0.47-1.57-0.09-1.98c0.34-0.38,2.84-2.07,5.67-2.02
		c0.48,0.01,0.38,0.12,0.6,0.12C93.33,24,93.83,23.47,93.83,23.47"/>
	<path class="st0" d="M88.17,23.12c0.11-0.22,0.56-0.65,0.27-0.66c-1.3-0.07-2.69,0.12-5.27,1.14c-2.99,1.17-4.78,2.29-6.08,4.07
		c-1.77,2.41-1.59,5.44,1.45,6.88c3.82,1.81,7.88,2.98,17.9,3.14c11.91,0.19,17.52-0.55,19.23-0.72c1.59-0.16,4.49-0.56,5.17-0.69
		c0.2-0.04,0.2-0.18-0.09-0.18c-0.29,0-10.11,0.56-15.54,0.47c-4.28-0.07-16.7,0.01-23.8-3.28c-6.05-2.8-4.79-5.64-1.31-7.33
		c3.39-1.64,5.4-1.62,5.99-1.57c0.59,0.06,0.64,0.29,0.88,0.12C87.18,24.33,88.11,23.24,88.17,23.12"/>
	<polyline class="st1" points="0,46.13 2.38,46.13 2.38,50.79 7.05,50.79 7.05,46.13 9.43,46.13 9.43,57.96 7.05,57.96 7.05,52.79 
		2.38,52.79 2.38,57.96 0,57.96 0,46.13 	"/>
	<path class="st1" d="M21.01,57.96l-1.02-2.68h-4.73l-0.97,2.68h-2.55l4.61-11.83h2.53l4.74,11.83H21.01 M19.23,53.28l-1.64-4.39
		l-1.6,4.39H19.23z"/>
	<polyline class="st1" points="27.17,52.99 22.85,46.13 25.64,46.13 28.41,50.81 31.15,46.13 33.9,46.13 29.55,53 29.55,57.96 
		27.17,57.96 27.17,52.99 	"/>
	<polyline class="st1" points="34.95,46.13 37.4,46.13 39.17,54.26 39.2,54.26 41.35,46.13 44.19,46.13 46.25,54.39 46.29,54.39 
		48.07,46.13 50.48,46.13 47.61,57.96 45.06,57.96 42.73,49.12 42.7,49.12 40.37,57.96 37.78,57.96 34.95,46.13 	"/>
	<path class="st1" d="M60.41,57.96l-1.02-2.68h-4.72l-0.98,2.68h-2.54l4.61-11.83h2.53l4.74,11.83H60.41 M58.63,53.28l-1.64-4.39
		l-1.6,4.39H58.63z"/>
	<path class="st1" d="M65.34,46.13h5.02c1.77,0,2.35,0.18,2.71,0.3C74.44,46.94,75,48.3,75,49.45c0,1.29-0.64,2.43-1.8,2.91
		c-0.41,0.18-0.86,0.31-1.32,0.36v0.03c0.99,0.56,1.45,0.99,2.64,2.89l1.44,2.31H73.1l-1.72-2.58c-1.44-2.13-1.59-2.36-3.19-2.36
		h-0.48v4.94h-2.38V46.13 M67.71,51.14h1.77c0.73,0,1.74,0,2.15-0.15c0.83-0.28,0.91-1.04,0.91-1.39c0-0.48-0.16-0.94-0.61-1.21
		c-0.45-0.26-0.74-0.26-2.35-0.26h-1.87V51.14z"/>
	<path class="st1" d="M82.66,46.13c1.34,0,3.29,0,4.56,2c0.4,0.63,0.99,1.72,0.99,4.03c0,0.71,0,2.84-1.5,4.48
		c-1.21,1.32-3.17,1.32-3.93,1.32H78.3V46.13H82.66 M80.68,48.13v7.83h1.78c1.83,0,3.29-0.1,3.29-3.9c0-3.93-1.68-3.93-4-3.93H80.68
		z"/>
	<polyline class="st1" points="99.53,48.13 96.03,48.13 96.03,46.13 105.41,46.13 105.41,48.13 101.91,48.13 101.91,57.96 
		99.53,57.96 99.53,48.13 	"/>
	<polyline class="st1" points="111.11,52.99 106.78,46.13 109.57,46.13 112.35,50.81 115.09,46.13 117.83,46.13 113.49,53 
		113.49,57.96 111.11,57.96 111.11,52.99 	"/>
	<polyline class="st1" points="120.1,46.13 122.48,46.13 122.48,55.96 128.42,55.96 128.42,57.96 120.1,57.96 120.1,46.13 	"/>
	<polyline class="st1" points="131.23,46.13 140,46.13 140,48.13 133.61,48.13 133.61,50.76 139.56,50.76 139.56,52.76 
		133.61,52.76 133.61,55.96 140.22,55.96 140.22,57.96 131.23,57.96 131.23,46.13 	"/>
	<path class="st1" d="M143.29,46.13h5.02c1.77,0,2.35,0.18,2.71,0.3c1.37,0.51,1.93,1.87,1.93,3.02c0,1.29-0.64,2.43-1.8,2.91
		c-0.41,0.18-0.86,0.31-1.32,0.36v0.03c0.99,0.56,1.45,0.99,2.64,2.89l1.44,2.31h-2.86l-1.72-2.58c-1.44-2.13-1.59-2.36-3.19-2.36
		h-0.48v4.94h-2.38V46.13 M145.67,51.14h1.77c0.73,0,1.73,0,2.15-0.15c0.83-0.28,0.91-1.04,0.91-1.39c0-0.48-0.16-0.94-0.61-1.21
		c-0.45-0.26-0.74-0.26-2.35-0.26h-1.87V51.14z"/>
</g>
</svg>
