<svg xmlns="http://www.w3.org/2000/svg" width="1600" height="937.285" viewBox="0 0 1600 937.285">
  <defs>
    <style>
      .cls-1 {
        fill: #ccc;
        fill-opacity: 0.75;
        fill-rule: evenodd;
        opacity: 0.3;
      }
    </style>
  </defs>
  <path id="Shape_13_copy_2" data-name="Shape 13 copy 2" class="cls-1" d="M1478.79,969.52c53.94-39.171,107.29-77.884,160.75-116.106,0.11,0.415.13,0.78,0.26,1.133-0.03.024-.07,0.036,0.01,0.067-53.26,37.993-106.28,76.54-159.94,115.493-68.64,49.8-139.58,101.313-211.91,152.523-116.33,82.33-234.84,134.41-362.526,159.22-121.557,23.71-254.752,24.36-419.169,2.09-94.665-12.8-190.6-34.69-283.391-55.86-166.707-38.01-338.956-77.28-519.7-69.21-163.811,7.3-311.959,60.63-455.1,112.12-51.548,18.54-104.239,37.5-157.939,54.41a9.7,9.7,0,0,0,.021-1.02c53.464-16.84,105.952-35.73,157.3-54.21,143.409-51.62,291.625-104.98,455.82-112.28,181-8.04,353.39,31.26,520.2,69.29,92.773,21.15,188.7,43.02,283.321,55.87,329.559,44.57,555.53-2.03,780.12-160.99C1339.21,1070.87,1410.21,1019.33,1478.79,969.52Zm-223.4,150.98c89.84-60.82,176.15-121.136,256.8-177.667,42.94-29.963,85.31-59.362,127.61-88.286,0.06,0.39.09,0.755,0.15,1.145-41.95,28.756-84.04,57.977-126.7,87.7-80.72,56.558-167.02,116.866-256.87,177.736-138.54,94.47-277.976,146.83-438.826,164.82-102.629,11.46-216.071,9.19-346.851-7.02-96.9-11.81-194.726-32.54-289.3-52.58l-20.517-4.41c-162.37-34.45-322.251-64.7-494.424-57.01-163.042,7.28-309.962,58.23-452.032,107.5-47.143,16.36-95.334,33.05-144.191,48.22l-0.016-1.04c48.727-15.09,96.715-31.7,143.617-48.02,142.276-49.32,289.262-100.31,452.719-107.63,172.38-7.73,332.517,22.61,494.923,57.1L182,1225.4c94.587,20.05,192.368,40.8,289.191,52.58,130.566,16.17,243.832,18.43,346.171,7.03C977.984,1267.06,1117.11,1214.79,1255.39,1120.5Zm246.79-172.891c45.02-30.252,90.81-60.878,137.79-91.7,0.07,0.4.11,0.772,0.21,1.157q-70.005,45.926-136.91,91.174c-91.47,61.577-175.98,117.6-258.41,171.277-139.27,90.82-279.437,141.36-441.185,159.15-103.107,11.28-217.092,9.75-348.494-4.72-101.025-11.15-202.77-31.14-301.186-50.42l-9.106-1.78c-152.539-30.09-316.444-58.78-495.1-50.78-162.315,7.21-307.857,55.85-448.613,102.88-42.935,14.28-86.571,28.85-130.867,42.29,0-.34.027-0.68,0.056-1.03,44.022-13.37,87.491-27.89,130.116-42.12,141.034-47.04,286.777-95.76,449.337-102.97,178.964-8.05,342.981,20.72,495.658,50.77l9.147,1.82c98.309,19.29,199.984,39.25,300.935,50.37,131.241,14.47,245.1,15.99,348.058,4.76,161.332-17.76,301.222-68.2,440.222-158.78C1326.26,1065.22,1410.84,1009.18,1502.18,947.609Zm-9.97,4.781c50.22-32.46,99.39-63.93,148.09-94.414a7.468,7.468,0,0,1,.24,1.153c-48.46,30.328-97.42,61.6-147.31,93.922-78.33,50.729-163.33,104.669-259.87,164.959-139.39,87-280.4,135.73-443.6,153.4-104.118,11.17-218.671,10.34-350.213-2.49-104.939-10.31-209.495-29.16-310.594-47.42-152.871-27.8-318.687-52.45-495.877-44.53-161.329,7.27-305.542,53.47-445.022,98.21-38.637,12.39-77.915,24.99-117.638,36.77a4.871,4.871,0,0,1,.022-1.02c39.519-11.73,78.558-24.27,117.03-36.56,139.65-44.79,284.061-91.11,445.671-98.36,177.4-7.91,343.393,16.73,496.373,44.58,101.1,18.27,205.553,37.13,310.413,47.37,131.383,12.82,245.781,13.66,349.812,2.52,162.832-17.66,303.521-66.32,442.6-153.11C1328.88,1057.09,1414,1003.12,1492.21,952.39Zm-9.93,4.844c53.61-33.354,106.16-65.553,158.44-96.847a5.81,5.81,0,0,1,.22,1.118c-52,31.134-104.33,63.18-157.65,96.374-88.23,54.811-177.87,108.6-261.54,158.631-139.37,83.15-281.078,130.09-445.783,147.61-105.3,11.08-220.381,11-352-.22-109.093-9.28-221.034-27.76-311.011-42.58-141.417-23.62-311.034-46.62-496.55-38.27-160.286,7.17-303.123,51.08-441.23,93.47-34.4,10.58-69.371,21.32-104.691,31.51a9.616,9.616,0,0,1-.009-0.99c35.185-10.13,69.922-20.81,104.255-31.33,138.235-42.5,281.209-86.43,441.7-93.64,185.794-8.36,355.522,14.69,497.044,38.3,89.945,14.85,201.846,33.28,310.868,42.56,131.425,11.22,246.429,11.27,351.561.24,164.378-17.48,305.782-64.33,444.9-147.34C1304.5,1065.84,1394.13,1012.08,1482.28,957.234ZM1472.29,962c54.18-32.347,110.25-65.319,168.97-98.67,0.11,0.354.1,0.743,0.22,1.117-58.45,33.181-114.21,66.011-168.25,98.263-86.19,51.4-176.04,102.622-262.98,152.192-139.35,79.42-281.764,124.53-448.2,141.96-106.386,10.95-222.025,11.63-353.681,2.03-104.731-7.63-207.062-22.27-311.387-37.84-128.747-19.51-301.7-40.79-497.32-31.96-159.1,7.13-300.4,48.59-436.982,88.74-30.349,8.94-61.075,17.96-92.155,26.65,0.03-.35-0.008-0.67-0.012-1.02,30.913-8.61,61.5-17.59,91.719-26.46,136.718-40.18,278.15-81.7,437.489-88.9,195.83-8.82,368.861,12.51,497.789,32.06,104.284,15.53,206.525,30.13,311.236,37.76,131.479,9.58,247.056,8.96,353.242-2.04,166.071-17.37,308.208-62.35,447.3-141.65C1296.31,1064.67,1386.12,1013.41,1472.29,962ZM1226.21,1097.23c81.95-44.49,159.32-86.51,236.11-130.423,61.74-35.3,121.28-68.425,179.58-99.8,0.11,0.326.12,0.741,0.21,1.08-58.09,31.268-117.43,64.257-178.87,99.39-76.78,43.9-154.19,85.959-236.16,130.419l-28.34,15.47c-139.25,75.61-282.435,118.94-450.516,136.21-107.552,10.85-223.79,12.25-355.448,4.29-107.214-6.54-213.156-19.69-311.857-33-182.7-24.66-340.994-32.83-498-25.74-157.667,7.1-297.351,46.2-432.384,83.99-26.393,7.42-53.063,14.86-79.966,22.11a7.88,7.88,0,0,0-.009-0.98c26.222-7.08,52.654-14.47,79.561-21.97,135.1-37.85,274.914-77,432.827-84.11,157.109-7.09,315.576,1.1,498.491,25.75,98.525,13.31,204.579,26.51,311.647,33.01,131.5,7.94,247.615,6.56,355.078-4.33,167.819-17.23,310.665-60.43,449.645-135.94Zm6.8-10.25c76.1-39.31,148.06-76.36,219.31-115.378,65.07-35.572,128.1-68.919,190.29-100.586,0.01,0.358.14,0.71,0.16,1.086-61.93,31.518-124.77,64.8-189.58,100.219-71.27,39-143.15,76.069-219.33,115.349-15.45,8.02-31.05,16-46.63,24.11-139.01,71.87-282.852,113.33-452.885,130.52-108.772,10.76-225.623,12.91-357.095,6.55-112.237-5.45-220.813-17.29-312.228-28.21-174.366-20.76-332.883-26.96-498.844-19.46-156.239,7.02-293.959,43.72-427.367,79.23-23.037,6.15-45.705,12.17-68.221,17.97a8.264,8.264,0,0,0,.026-0.98c22.412-5.8,44.94-11.8,67.84-17.92,133.339-35.51,271.371-72.24,427.751-79.27,166.135-7.49,324.751-1.33,499.231,19.49,91.411,10.88,199.9,22.76,312.119,28.18,131.386,6.38,248.064,4.24,356.73-6.52,169.723-17.15,313.373-58.54,452.063-130.29C1201.94,1102.95,1217.57,1094.94,1233.01,1086.98Zm0.99-6.48c72.41-35.33,140.67-68.72,208.33-104.105,68.1-35.569,134.6-68.938,201.03-100.866,0.03,0.367.16,0.719,0.21,1.042-66.2,31.822-132.48,65.125-200.38,100.611-67.67,35.328-136.02,68.708-208.34,104.078q-29.355,14.37-59.25,28.99c-138.48,68.03-283.15,107.66-455.1,124.78-110.116,10.65-227.494,13.54-358.864,8.8-92.059-3.35-188.461-10.54-312.577-23.39-162.064-16.8-325.547-21.11-499.591-13.24-154.5,6.97-290.357,41.26-421.9,74.46q-28.8,7.23-56.948,14.29c0.063-.36-0.01-0.69.025-1,18.66-4.61,37.448-9.35,56.507-14.16,131.6-33.25,267.708-67.57,422.381-74.52,174.146-7.91,337.734-3.59,499.867,13.21,124.117,12.85,220.469,20.06,312.5,23.37,131.232,4.77,248.508,1.9,358.514-8.79,171.766-17.06,316.109-56.65,454.429-124.55C1194.76,1099.72,1214.42,1090.12,1234,1080.5Zm-2.57-4.09c69.77-32.32,135.7-62.7,201.01-95.185,70.71-35.245,140.79-68.542,211.83-100.6,0.08,0.359.08,0.688,0.19,1.023-70.9,31.953-140.69,65.12-211.26,100.3-65.28,32.494-131.23,62.934-200.99,95.194-22.24,10.28-45.21,20.88-68.07,31.54-138.02,64.22-283.334,102.05-457.542,119.04-111.559,10.6-229.515,14.24-360.555,11.13-94.961-2.33-194.411-8.24-313.02-18.63-151.961-13.37-310.92-15.55-500.195-6.99-152.61,6.91-286.542,38.82-416.01,69.66-15.543,3.71-30.878,7.41-46.125,10.96a9.344,9.344,0,0,0-.045-0.98q22.71-5.34,45.785-10.88c129.605-30.87,263.568-62.81,416.457-69.73,189.38-8.56,348.448-6.35,500.471,6.95,118.611,10.41,217.994,16.35,312.953,18.65,130.9,3.15,248.811-.47,360.28-11.08,173.875-16.99,319.036-54.73,456.7-118.86C1186.25,1097.28,1209.21,1086.62,1231.43,1076.41Zm-4.61-2.82c67.98-29.58,132.11-57.55,195.61-87.57,73.77-34.975,147.07-67.837,222.78-99.788,0.05,0.333.12,0.643,0.15,1.009-75.52,31.851-148.6,64.658-222.17,99.521-63.47,30.1-127.67,58.008-195.65,87.608-24.47,10.65-49.81,21.69-75.01,32.75-137.79,60.69-283.893,96.73-459.777,113.33-111.769,10.59-230.291,14.94-362.24,13.35-98.138-1.18-200.68-5.66-313.459-13.81-140.122-10.1-289.881-10.29-500.968-.71-150.416,6.8-282.035,36.31-409.42,64.89-12.087,2.7-24.039,5.36-35.958,8.01-0.038-.32,0-0.62-0.007-0.97q17.726-3.915,35.648-7.96c127.418-28.58,259.14-58.13,409.764-64.95,211.161-9.55,361.1-9.35,501.285.73,112.811,8.13,215.251,12.63,313.338,13.84,131.877,1.57,250.27-2.84,362.011-13.38,175.654-16.62,321.433-52.54,459.083-113.14C1177.08,1095.25,1202.35,1084.25,1226.82,1073.59Zm-5.98-1.91c66.63-27.22,129.57-52.99,191.59-80.875,79.03-35.514,156.19-67.9,233.86-98.461-0.02.351,0.11,0.7,0.11,0.985-77.39,30.488-154.44,62.794-233.25,98.242-62.09,27.949-125.03,53.639-191.57,80.879-26.32,10.77-53.49,21.88-80.54,33.13-138.89,57.62-281.327,90.84-462.116,107.58-113.3,10.52-232.4,15.63-364.044,15.61-101.592,0-207.154-3.04-313.792-8.99-157.247-8.86-320.209-2.69-501.708,5.56-148.009,6.7-277.208,33.84-402.136,60.04-8.923,1.9-17.746,3.76-26.537,5.58,0.03-.34.028-0.65,0.025-0.99q13.029-2.73,26.2-5.47c125.058-26.28,254.326-53.43,402.514-60.1,181.5-8.25,344.635-14.43,501.919-5.57,106.6,5.97,212.236,9,313.685,8.99,131.59,0.01,250.583-5.12,363.819-15.59,180.474-16.74,322.842-49.91,461.442-107.46C1167.42,1093.52,1194.57,1082.43,1220.84,1071.68Zm-6.56-1.38c65.43-25.08,127.3-48.73,188.19-74.707,82.13-35,163.49-66.775,244.94-96.443a9.164,9.164,0,0,0,.19.985c-81.33,29.645-162.41,61.324-244.43,96.286-60.99,25.959-122.8,49.6-188.29,74.659-27.82,10.66-56.57,21.72-85.37,32.97-137.627,53.75-280.853,85.13-464.447,101.85-114.989,10.47-234.67,16.3-365.729,17.85-107.009,1.3-212.805-.14-314.18-4.22-135.688-5.42-273,1.05-432.028,8.55q-34.647,1.665-70.494,3.26c-145.183,6.61-271.647,31.35-393.932,55.29-6.025,1.2-12.023,2.34-17.985,3.51,0-.31,0-0.63,0-0.96q8.79-1.7,17.642-3.43c122.528-23.96,249.057-48.75,394.349-55.33,23.977-1.07,47.357-2.18,70.454-3.3,159.128-7.49,296.512-13.99,432.167-8.55,101.48,4.08,207.168,5.49,314.131,4.24,131.025-1.54,250.562-7.39,365.586-17.87,183.338-16.66,326.318-48.05,463.741-101.74C1157.56,1091.96,1186.45,1080.98,1214.28,1070.3Zm-7.46-.89c64.59-23.03,125.63-44.88,185.63-69.02,86.29-34.732,170.67-65.442,256.14-94.113a7.511,7.511,0,0,1,.2.975c-85.35,28.656-169.57,59.309-255.6,93.928-60.12,24.2-121.16,46.01-185.81,69.07-29.2,10.42-59.34,21.17-89.48,32.2-136.153,49.84-280.106,79.49-466.718,96.17-117.144,10.47-237.371,17.03-367.424,20.13-114.727,2.72-217.638,2.9-314.6.56-113.411-2.76-231.742,3.7-356.96,10.57-47.067,2.56-95.661,5.25-146.265,7.54-141.945,6.44-265.424,28.84-384.857,50.49-3.5.61-6.93,1.25-10.327,1.87a8.365,8.365,0,0,1-.039-0.93c3.361-.62,6.689-1.23,10.088-1.84,119.5-21.69,243.077-44.12,385.165-50.53,50.562-2.35,99.2-4.98,146.3-7.55,125.29-6.85,243.689-13.31,357.133-10.58,96.967,2.33,199.771,2.14,314.532-.58,129.97-3.07,250.121-9.67,367.2-20.12,186.48-16.6,330.207-46.23,466.227-96C1147.52,1090.57,1177.66,1079.82,1206.82,1069.41Zm-7.81-.6c63.94-21.15,124.31-41.17,183.47-63.62,90.1-34.124,177.8-63.637,267.4-91.14,0.06,0.324.13,0.654,0.2,0.975-89.46,27.467-177.02,56.922-266.96,91-59.23,22.45-119.63,42.51-183.48,63.65-30.38,10.05-61.74,20.44-93.23,31.26-134.236,45.87-278.884,73.76-469.073,90.42-120.028,10.51-240.779,17.83-369.159,22.39-123.677,4.37-223.782,6.08-315.063,5.33-98.572-.78-200.446,5.9-308.306,12.9-62.443,4.11-127.043,8.35-195.624,11.49-138.25,6.28-258.493,26.39-374.752,45.81-1.273.2-2.474,0.41-3.713,0.6,0-.32,0-0.64-0.01-0.98,1.21-.15,2.343-0.33,3.473-0.57,116.364-19.42,236.64-39.54,375.1-45.8,68.511-3.14,133.077-7.37,195.522-11.46,107.96-7.05,209.835-13.71,308.582-12.94,91.1,0.74,191.208-.99,314.886-5.37,128.271-4.56,249.08-11.84,369.059-22.34,189.924-16.66,334.457-44.5,468.506-90.29C1137.32,1089.29,1168.69,1078.89,1199.01,1068.81Zm-8.14-.27c63.31-19.41,123.13-37.76,181.63-58.5,93.4-33.254,185.26-61.553,278.81-87.631a6.4,6.4,0,0,0,.1.977c-93.4,26.07-185.04,54.274-278.27,87.424-58.57,20.85-118.37,39.18-181.77,58.62-31.43,9.58-63.83,19.52-96.48,29.9-133.56,42.5-274.617,67.84-471.434,84.73-124.423,10.69-245.667,18.74-370.848,24.65-96.062,4.54-208.53,9.29-315.424,10.15-88.131.73-178.573,7.79-274.429,15.28-73.047,5.72-148.6,11.59-230.21,15.35-133.542,6.09-249.616,23.78-361.831,40.93a8.89,8.89,0,0,0-.011-0.99c112.251-17.14,228.328-34.81,361.833-40.92,81.657-3.67,157.13-9.62,230.284-15.3,95.787-7.5,186.369-14.57,274.535-15.3,106.825-.87,219.291-5.61,315.246-10.16,125.182-5.9,246.532-13.95,370.816-24.64,196.7-16.87,337.488-42.22,470.924-84.59C1126.94,1088.12,1159.43,1078.17,1190.87,1068.54Zm462.07-136.363c-97.2,24.388-192.26,51.008-289.8,83.483-58,19.26-117.29,35.98-180.1,53.64-32.48,9.14-65.96,18.56-99.73,28.49-163.508,48.15-324.34,66.43-473.664,79-132.307,11.12-254.182,19.93-372.617,26.9-114.928,6.79-218.1,12.56-315.843,14.96-80.177,1.95-162.261,9.48-249.156,17.52-80.97,7.47-164.648,15.16-256.228,19.36-127.2,5.78-237.994,21.01-345.084,35.83a7.532,7.532,0,0,0-.038-0.93c107.122-14.85,217.919-30.03,345.151-35.85,91.575-4.24,175.291-11.9,256.16-19.35,86.967-8.02,169.014-15.56,249.323-17.57,97.681-2.37,200.776-8.17,315.779-14.91,118.4-6.97,240.206-15.79,372.5-26.89,149.286-12.58,309.962-30.86,473.229-78.91,33.77-9.97,67.32-19.38,99.7-28.5,62.86-17.71,122.14-34.39,180.05-53.64,97.69-32.5,192.84-59.145,290.16-83.557C1652.85,931.52,1652.82,931.863,1652.94,932.177Zm1.46,9.372c-101.18,22.589-199.47,47.361-301.28,78.921-57.51,17.78-116.44,32.88-178.84,48.96-33.34,8.54-67.8,17.43-102.5,26.84-149.508,40.49-298.451,58.58-476,73.24-111.888,9.26-242.293,19.88-374.4,29.18-12.683.9-25.261,1.79-37.873,2.7C86.038,1208.27-6,1214.82-94.818,1218.43c-74.028,2.98-149.636,11.08-229.673,19.64-86.957,9.31-176.82,18.94-276.45,23.5-120.823,5.51-226.445,18.5-328.344,31.27-0.04-.34-0.008-0.67-0.045-0.98,101.94-12.73,207.525-25.74,328.489-31.23,99.563-4.55,189.388-14.21,276.31-23.5,80.04-8.54,155.678-16.67,229.849-19.65,88.741-3.62,180.753-10.14,278.218-17.06,12.5-.92,25.226-1.79,37.909-2.7,132.072-9.3,262.425-19.93,374.3-29.17,177.5-14.64,326.249-32.71,475.549-73.16,34.78-9.44,69.25-18.3,102.66-26.86,62.31-16.04,121.25-31.16,178.65-48.92,101.92-31.561,200.44-56.419,301.69-79.017C1654.29,940.922,1654.42,941.238,1654.4,941.549Zm1.66,9.919c-105.28,20.556-206.87,43.35-312.98,73.8-56.95,16.35-115.56,29.96-177.57,44.39-34.21,7.95-69.55,16.19-105.3,25.03-159.293,39.49-323.587,54.99-478.344,67.53-65.94,5.36-131.095,10.86-200.041,16.73-57.227,4.83-116.5,9.85-175.954,14.71-25.717,2.1-51.491,4.3-76.4,6.37-83.99,7.11-163.34,13.75-240.254,18.14-69.079,3.99-139.581,12.6-214.191,21.74-91.638,11.23-186.456,22.82-292.636,27.71-114.547,5.25-214.862,16.27-311.742,27.01,0-.3.034-0.61,0.03-0.94,96.878-10.76,197.192-21.8,311.708-27.01,106.145-4.88,200.927-16.49,292.634-27.73,74.539-9.14,145-17.77,214.263-21.71,76.951-4.38,156.226-11.07,240.217-18.16,24.84-2.09,50.654-4.27,76.334-6.37,59.473-4.88,118.743-9.9,176-14.75,68.95-5.84,134.054-11.32,200.079-16.71,154.572-12.47,318.844-28,477.979-67.45,35.69-8.85,71.06-17.11,105.27-25.03,61.98-14.43,120.55-28.03,177.43-44.38,106.23-30.487,207.88-53.259,313.24-73.853A7.128,7.128,0,0,0,1656.06,951.468Zm1.61,10.5c-109.5,18.457-214.25,38.933-324.61,68.123-56.52,14.92-114.7,27.05-176.4,39.93-35.03,7.32-71.29,14.85-107.99,23.1-150.494,33.93-300.347,47.53-480.616,61.81-116.1,9.24-231.866,20.07-354.371,31.51l-23.389,2.23c-35.527,3.28-70.719,6.75-104.767,10.09-74.158,7.31-144.16,14.19-212.277,19.22-65.1,4.76-131.364,13.97-201.354,23.66-95.578,13.2-194.388,26.92-306.324,32.03-108.1,4.96-203.077,14.26-294.942,23.25a8.408,8.408,0,0,1,.033-0.92c91.859-9.03,186.908-18.35,295.045-23.28,111.754-5.16,210.5-18.83,305.971-32.03,70.131-9.7,136.289-18.9,201.635-23.67C-58.674,1212,11.4,1205.13,85.49,1197.85c34.048-3.35,69.237-6.84,104.725-10.17l23.434-2.13c122.479-11.51,238.266-22.35,354.348-31.56,180.166-14.27,329.978-27.91,480.363-61.76,36.7-8.26,72.92-15.82,107.94-23.11,61.68-12.81,119.87-24.98,176.31-39.92,110.45-29.241,215.36-49.731,324.9-68.164A5.413,5.413,0,0,1,1657.67,961.967ZM1659.4,973c-112.46,15.974-222.85,34.4-336.34,61.887-56.07,13.59-114.07,24.29-175.45,35.66-35.81,6.59-72.92,13.4-110.51,21.01-148.982,30.21-302.8,42.11-465.718,54.79l-17.224,1.32c-118.066,9.17-237.049,21-379.447,35.94-43.09,4.53-85.447,9.34-126.495,13.97-66.6,7.53-129.5,14.64-190.9,20.19-61.821,5.53-124.454,15.23-190.734,25.5-98.809,15.25-200.984,31.06-317.687,36.43-99.313,4.59-187.179,12.12-272.3,19.44-2.014.16-3.994,0.32-6,.5,0-.33,0-0.64-0.006-0.95,2.009-.19,3.989-0.33,6.037-0.51,85.05-7.33,172.948-14.87,272.374-19.4,116.557-5.43,218.632-21.2,317.3-36.48,66.392-10.22,129.059-19.92,190.983-25.48,61.292-5.56,124.226-12.67,190.83-20.16,41.007-4.67,83.471-9.47,126.528-13.98,142.347-14.94,261.416-26.77,379.548-35.97l17.226-1.31c162.82-12.65,316.566-24.55,465.418-54.7,37.61-7.66,74.72-14.48,110.6-21.11,61.35-11.33,119.21-21.99,175.28-35.57,113.6-27.55,223.96-45.961,336.59-61.955A2.937,2.937,0,0,0,1659.4,973Zm1.71,11.581c-116.39,13.444-230.26,29.176-348.02,55.116-55.71,12.25-113.42,21.53-174.49,31.39-36.66,5.92-74.55,11.98-113.03,18.93-135.088,24.37-274.026,34.67-421.07,45.59-21.226,1.56-42.593,3.1-64.166,4.81-134.462,10.22-268.164,25.02-381.27,38.19-49.225,5.71-97.479,11.92-144.148,17.91-60.583,7.74-117.68,15.04-173.638,20.98-58.759,6.27-118.526,16.5-181.624,27.32-101.434,17.36-206.44,35.34-327.5,40.95-87.886,4.03-166.593,9.88-242.8,15.54q-9.486.69-18.828,1.38a8.667,8.667,0,0,0,.031-0.93c6.252-.47,12.536-0.96,18.826-1.4,76.17-5.67,154.874-11.54,242.9-15.56,120.882-5.6,225.753-23.53,327.15-40.91,63.134-10.81,122.9-21.03,181.767-27.3,55.92-5.96,113.045-13.31,173.6-21.04,46.707-5.96,94.929-12.15,144.253-17.9,113.039-13.16,246.737-27.98,381.268-38.21,21.527-1.67,42.961-3.25,64.183-4.82,147-10.86,285.847-21.19,420.823-45.53,38.52-6.92,76.42-13.08,113.09-18.96,61-9.82,118.67-19.11,174.32-31.33,117.86-25.96,231.76-41.7,348.24-55.17C1661.01,983.966,1661.11,984.254,1661.11,984.584Zm1.85,12.117c-120.51,10.769-237.84,23.629-359.96,47.789-55.31,10.96-112.78,18.9-173.57,27.29-37.45,5.14-76.02,10.46-115.34,16.68-122.186,19.34-247.208,27.89-379.54,37-35.2,2.45-71.507,4.95-108.133,7.67-109.495,8.17-227.6,20.65-382.866,40.44-54.542,6.96-107.606,14.59-158.951,21.95-55.479,7.95-107.967,15.41-159.253,21.76-56.328,6.98-113.481,17.69-173.853,29.06-103.812,19.5-211.118,39.69-335.974,45.47-74.157,3.39-141.654,7.72-206.821,11.91-12.9.79-25.6,1.63-38.188,2.4,0-.28,0-0.6,0-0.91,12.623-.82,25.317-1.63,38.22-2.44,65.2-4.23,132.732-8.53,206.852-11.95,124.754-5.75,231.989-25.94,335.7-45.44,60.372-11.35,117.593-22.1,173.891-29.03,51.325-6.32,103.775-13.81,159.251-21.78,51.309-7.36,104.447-14.95,159.026-21.91,155.283-19.84,273.437-32.31,383.034-40.49,36.54-2.72,72.9-5.2,108.03-7.67,132.3-9.08,257.332-17.69,379.281-36.97,39.46-6.22,78.08-11.55,115.42-16.68,60.9-8.4,118.28-16.28,173.49-27.25,122.25-24.23,239.57-37.07,360.16-47.877A8.891,8.891,0,0,0,1662.96,996.7Zm-542.8,74.9c60.57-6.98,117.71-13.53,172.66-23.23,126.45-22.26,247.18-32.02,371.78-39.98,0.11,0.29.13,0.62,0.25,0.94-124.7,7.95-245.36,17.71-371.87,39.98-54.96,9.69-112.14,16.27-172.71,23.23-38.14,4.35-77.52,8.87-117.8,14.37-109.872,14.97-221.911,21.89-340.683,29.2-48.408,2.95-98.514,6.05-149.181,9.74-110.959,8.07-233.168,21.68-384.63,42.73-59.162,8.22-116.332,17.29-171.715,26.06-51.182,8.14-99.478,15.8-146.948,22.45-54.088,7.55-108.871,18.78-166.938,30.67-105.8,21.7-215.2,44.09-343.566,50.07-57.358,2.64-110.546,5.6-162.063,8.47-22.521,1.26-44.555,2.47-66.313,3.67a8.669,8.669,0,0,1,.027-0.98q32.589-1.755,66.35-3.66c51.48-2.87,104.672-5.79,162.026-8.46,128.237-5.92,237.594-28.35,343.222-50.02,58.136-11.91,113.025-23.12,167.181-30.71,47.4-6.62,95.7-14.28,146.847-22.39,55.308-8.82,112.55-17.88,171.744-26.11,151.585-21.05,273.762-34.65,384.805-42.75,50.681-3.71,100.823-6.82,149.264-9.77,118.6-7.31,230.663-14.17,340.481-29.17C1042.61,1080.48,1081.99,1075.95,1120.16,1071.6Zm-433.791,34.94c106-5.58,206.071-10.84,304.5-22.14,41.075-4.72,81.265-8.41,120.035-11.97,60.36-5.59,117.28-10.77,171.92-19.23,130.84-20.2,254.88-26.67,383.67-31.66a7.4,7.4,0,0,1,.13.96c-128.79,4.96-252.85,11.41-383.66,31.64-54.65,8.43-111.57,13.69-172,19.23-38.88,3.59-78.98,7.27-119.95,11.96-98.511,11.33-198.658,16.58-304.687,22.17-60.782,3.18-123.648,6.5-187.6,11.08-113.01,8.06-235.786,22.36-386.329,44.98-63.253,9.49-124.032,20.07-182.952,30.36-47.354,8.23-92.126,16.07-136.064,22.93-52.125,8.18-104.956,19.92-160.864,32.3-107.607,23.92-218.841,48.6-350.45,54.73-36.556,1.67-71.669,3.41-105.594,5.1-36.752,1.81-71.964,3.59-106.125,5.08,0-.31.034-0.62,0.033-0.94,34.12-1.53,69.439-3.28,106.151-5.13,33.9-1.64,68.975-3.37,105.6-5.05,131.437-6.12,242.531-30.78,350.108-54.67,55.905-12.42,108.7-24.15,160.962-32.36,43.864-6.9,88.645-14.66,136.029-22.94,58.855-10.25,119.735-20.86,183.023-30.34,150.561-22.62,273.441-36.94,386.516-45.03C562.7,1113.03,625.586,1109.71,686.369,1106.54Zm21.85-7.78c94.237-3.95,183.4-7.75,271.109-15.96,41.972-3.9,82.822-6.74,122.412-9.46,60.14-4.18,116.82-8.11,171.09-15.34,135.17-17.97,262.5-20.88,395.58-22.75a7.522,7.522,0,0,0,.11.94c-133.14,1.86-260.46,4.77-395.54,22.77-54.27,7.19-111.09,11.18-171.29,15.32-39.53,2.76-80.42,5.58-122.249,9.49-87.89,8.21-176.945,11.99-271.285,15.96-72.2,3.04-146.9,6.18-223.242,11.55-114.784,8.03-238.061,23.06-388.061,47.26C29.932,1169.33-34.1,1181.47-96.03,1193.26c-44.115,8.36-85.66,16.24-126.52,23.37-50.381,8.72-101.4,20.93-155.46,33.88-104.058,24.91-221.985,53.17-356.633,59.4l-33.209,1.54c-57.567,2.65-111.125,5.14-161.842,7.05,0-.31,0-0.63-0.006-0.95,50.753-1.9,104.346-4.41,161.912-7.06l33.208-1.54c134.4-6.26,252.226-34.47,356.184-59.34,54.059-12.93,105.051-25.12,155.6-33.92,40.866-7.07,82.369-14.99,126.487-23.33,61.97-11.77,126.027-23.99,192.881-34.74,150.139-24.21,273.488-39.25,388.3-47.29C561.328,1105,635.948,1101.82,708.219,1098.76Zm19.341-6.89c83.505-2.55,162.421-4.94,240.238-10.61,42.832-3.12,84.442-5.04,124.722-6.94,59.82-2.83,116.48-5.5,170.32-11.53,139.46-15.58,270.03-14.77,407.44-13.34a3.4,3.4,0,0,0,.15.97c-137.47-1.42-268.08-2.23-407.49,13.34-53.97,6.03-110.59,8.73-170.55,11.54-40.25,1.89-81.75,3.81-124.533,6.91-77.976,5.66-156.907,8.08-240.4,10.62-82.772,2.53-168.509,5.15-256.448,11.16-116.24,8-240.068,23.72-389.843,49.54-70.268,12.12-137.225,25.91-202.031,39.2-40.987,8.46-79.649,16.42-117.764,23.65-48.7,9.3-98.158,22.03-150.447,35.4-105.378,27.12-224.921,57.75-362.311,64.19-63.77,2.94-122.753,5.48-178.4,7.2a4.314,4.314,0,0,1,0-.95c55.68-1.72,114.73-4.28,178.5-7.21,137.15-6.4,256.487-37,361.8-64.06,52.274-13.5,101.741-26.15,150.648-35.48,38.117-7.23,76.741-15.2,117.729-23.65,64.768-13.31,131.761-27.1,202.1-39.24,149.814-25.8,273.76-41.56,390.007-49.5C558.978,1097,644.684,1094.41,727.56,1091.87Zm17.023-6.05c73.489-1.32,143.043-2.57,211.806-6.11,43.513-2.26,85.851-3.32,126.831-4.33,59.63-1.49,116.11-2.95,169.71-7.76,142.31-12.93,274.69-8.37,414.91-3.6,1.42,0.03,2.85.07,4.33,0.13,0.07,0.32.02,0.67,0.09,0.98-1.53-.07-3.07-0.1-4.64-0.17-140.1-4.78-272.51-9.28-414.72,3.63-53.7,4.84-110.08,6.24-169.85,7.76-40.84.97-83.21,2.08-126.78,4.3-68.71,3.54-138.178,4.78-211.843,6.09-92.7,1.66-188.5,3.36-287.306,10.02-117.57,7.86-241.978,24.31-391.5,51.74-73.508,13.49-143.142,28.95-210.526,43.87-38.118,8.42-74.109,16.45-109.652,23.81-47.38,9.82-95.244,22.98-146,36.89-106.6,29.26-227.5,62.39-367.541,68.9-57.915,2.68-111.448,4.78-161.779,6.1a8.324,8.324,0,0,0-.006-0.96c50.441-1.27,103.935-3.41,161.854-6.06,139.864-6.54,260.516-39.68,367.019-68.87,50.757-13.9,98.725-27.09,146.134-36.95,35.511-7.33,71.507-15.31,109.689-23.78,67.349-14.94,136.985-30.37,210.561-43.88,149.586-27.47,274.136-43.89,391.826-51.79C556.047,1089.13,651.929,1087.43,744.583,1085.82Zm14.866-5.32c64.394-.29,125.1-0.52,185.424-2.35,44.372-1.35,87.437-1.55,129.017-1.62,59.5-.23,115.76-0.41,169.09-4.13,140.66-9.79,271.18-2.24,409.46,5.73,7.17,0.44,14.26.86,21.5,1.27,0.04,0.31.11,0.63,0.13,0.96-7.32-.43-14.67-0.83-21.96-1.28-138.17-7.97-268.62-15.51-409.2-5.73-53.37,3.77-109.61,3.95-169.14,4.09-41.6.16-84.693,0.32-128.993,1.68-60.375,1.86-121.189,2.06-185.424,2.36-101.832.41-207.062,0.84-316.061,7.98-118.82,7.81-243.782,24.94-393.247,54.04-76.53,14.89-148.6,31.99-218.315,48.58-35.524,8.42-69.136,16.42-102.253,23.85-46.023,10.35-92.646,23.95-141.973,38.39-107.676,31.44-229.758,67.06-372.271,73.72-50.6,2.35-98.84,4.14-145.242,5.21,0-.35.03-0.66,0.028-0.97,46.406-1.04,94.613-2.83,145.243-5.2,142.305-6.64,264.245-42.26,371.754-73.64,49.364-14.43,95.985-28.05,142.112-38.39,33.185-7.45,66.659-15.43,102.217-23.88,69.679-16.57,141.818-33.69,218.452-48.6,149.535-29.1,274.616-46.25,393.522-54.07C552.32,1081.36,657.689,1080.93,759.449,1080.5Zm13.068-4.51c55.752,0.56,108.438,1.11,160.927.58,45.09-.45,88.816.36,131.056,1.12,59.36,1.06,115.47,2.11,168.46-.49,139.32-6.79,268.21,3.69,404.68,14.76,12.69,1.02,25.34,2.08,38.11,3.09a6.874,6.874,0,0,0,.08,1.01c-12.84-1.03-25.75-2.11-38.46-3.12-136.42-11.09-265.24-21.56-404.48-14.77-53.09,2.6-109.21,1.58-168.54.49-42.3-.81-85.936-1.62-131.077-1.15-52.519.58-105.171,0.02-160.983-.6-110.331-1.13-224.434-2.31-342.847,5.25-118.388,7.6-247.545,26.01-394.94,56.32-79.454,16.29-153.8,35.18-225.775,53.42-33.107,8.43-64.31,16.35-95.215,23.83-44.882,10.81-90.155,24.86-138.242,39.74-108.642,33.68-231.863,71.82-376.778,78.63-45.508,2.12-88.222,3.57-128.6,4.33a8.536,8.536,0,0,1,.031-0.95c40.372-.78,83.051-2.24,128.559-4.36,144.67-6.78,267.69-44.86,376.3-78.51,48.082-14.9,93.428-28.93,138.373-39.8,30.908-7.45,62.112-15.37,95.184-23.8,71.973-18.23,146.354-37.15,225.839-53.46,147.5-30.31,276.8-48.74,395.256-56.33C547.966,1073.59,662.191,1074.77,772.517,1075.99Zm11.359-3.84c47.79,1.24,92.894,2.41,137.952,2.9,45.983,0.45,90.432,2.19,133.322,3.89,59.2,2.36,115.13,4.56,167.82,3.04,138.21-3.86,265.61,9.5,400.48,23.66,17.93,1.89,35.89,3.77,54.04,5.58a2.555,2.555,0,0,0,.17,1.01c-18.33-1.84-36.45-3.77-54.52-5.65-134.87-14.15-262.19-27.46-400.16-23.62-52.94,1.49-108.87-.71-168.11-3.07-42.94-1.71-87.267-3.46-133.212-3.88-45.056-.48-90.249-1.67-138.089-2.87-118.337-3.09-240.678-6.26-367.973,1.72-119.5,7.51-249.252,26.7-396.678,58.57-82.219,17.8-158.778,38.47-232.861,58.44-30.772,8.32-59.812,16.18-88.55,23.61-43.669,11.3-87.908,25.8-134.749,41.14-109.574,35.91-233.8,76.6-380.976,83.51-39.269,1.85-76.5,3.12-111.985,3.78a4.489,4.489,0,0,1-.007-0.97c35.516-.68,72.75-1.93,112.022-3.75,146.9-6.9,271.02-47.58,380.428-83.4,46.84-15.35,91.08-29.86,134.883-41.2,28.74-7.41,57.775-15.3,88.55-23.61,74.052-19.93,150.608-40.63,232.932-58.44,147.556-31.95,277.43-51.1,397.006-58.6C543.079,1065.93,665.47,1069.09,783.876,1072.15Zm9.617-3.15c40.4,1.74,78.637,3.33,116.851,4.46,46.757,1.39,91.8,4.11,135.406,6.78,59.02,3.64,114.77,7.01,167.31,6.6,137.12-1.09,263.32,15.12,396.78,32.22q34.41,4.425,69.27,8.79a4.088,4.088,0,0,0,.12,1q-35.22-4.35-69.82-8.84c-133.43-17.12-259.49-33.28-396.52-32.23-52.61.43-108.47-2.99-167.5-6.58-43.5-2.65-88.525-5.37-135.233-6.79-38.27-1.16-76.537-2.75-116.935-4.42-125.755-5.27-255.77-10.71-391.52-2.36-120.5,7.39-250.852,27.24-398.4,60.78-84.881,19.3-163.606,41.83-239.719,63.63-28.445,8.15-55.439,15.82-82.042,23.23-42.631,11.77-85.774,26.69-131.512,42.46-110.4,38.18-235.582,81.42-384.959,88.42-33.067,1.54-64.791,2.59-95.414,3.17,0.036-.3,0-0.65.029-0.95,30.625-.56,62.311-1.63,95.417-3.15,149.132-7,274.038-50.23,384.3-88.32,45.808-15.78,89.018-30.72,131.682-42.51,26.679-7.36,53.561-15.09,82.006-23.23,76.112-21.82,154.876-44.32,239.861-63.64,147.653-33.52,278.118-53.47,398.808-60.87C537.616,1058.28,667.705,1063.76,793.493,1069Zm8.359-2.52c33.491,1.94,65.206,3.81,97.061,5.39,47.47,2.39,93.15,6.12,137.417,9.73,58.84,4.82,114.46,9.37,166.74,10.02,136.27,1.73,261.32,20.71,393.66,40.73q41.52,6.33,83.86,12.55a3.283,3.283,0,0,1,.15,1c-28.5-4.11-56.57-8.38-84.53-12.6-132.22-20.04-257.18-39-393.38-40.72-52.28-.64-108-5.19-166.88-10-44.2-3.64-89.926-7.33-137.277-9.76-31.957-1.55-63.686-3.41-97.145-5.37-132.769-7.74-270.061-15.78-413.623-7.13-121.611,7.3-252.469,27.94-400.21,63.12-87.511,20.78-168.151,45.22-246.055,68.79-26.5,8.01-51.407,15.54-76.1,22.83-41.6,12.23-83.819,27.54-128.489,43.77-111.181,40.45-237.152,86.28-388.758,93.39-27.107,1.28-53.281,2.16-78.724,2.69-0.039-.33,0-0.64-0.043-0.98,25.511-.53,51.719-1.42,78.9-2.68,151.15-7.11,277.026-52.85,388-93.25,44.708-16.22,86.885-31.58,128.618-43.86,24.764-7.25,49.672-14.79,76.038-22.74,78-23.61,158.679-48.05,246.286-68.91,147.815-35.15,278.849-55.77,400.525-63.13C531.644,1050.79,669.014,1058.75,801.852,1066.48Zm6.869-1.95c27.11,2.06,52.738,4.01,78.7,5.78,48.249,3.38,94.554,8.1,139.374,12.73,58.72,5.98,114.24,11.69,166.3,13.44,135.61,4.42,259.59,26.07,390.81,49.05,32.4,5.64,65.07,11.36,98.17,16.84a2.309,2.309,0,0,0,.14,1.06c-33.43-5.57-66.27-11.28-98.8-16.97-131.21-22.94-255.09-44.62-390.56-49.07-52.13-1.72-107.65-7.42-166.37-13.4-44.784-4.62-91.144-9.36-139.408-12.72-25.857-1.82-51.466-3.76-78.7-5.78-139.272-10.47-283.213-21.32-434.348-12.42-122.591,7.17-254.043,28.58-401.915,65.33-90.056,22.4-172.646,48.74-252.5,74.23-24.288,7.74-47.185,15.09-70.043,22.17-40.7,12.69-82.029,28.45-125.6,45.12-111.937,42.7-238.763,91.1-392.349,98.37q-31.884,1.47-62.206,2.22c0.029-.35.027-0.67,0.061-0.98q30.391-.75,62.241-2.23c153.207-7.21,279.829-55.56,391.562-98.2,43.739-16.69,85-32.42,125.8-45.17,22.721-7.06,45.721-14.43,70.045-22.16,79.851-25.5,162.409-51.83,252.6-74.27,148-36.83,279.58-58.21,402.29-65.4C525.25,1043.26,669.328,1054.08,808.721,1064.53Zm5.689-1.38c20.225,1.88,41.223,3.8,61.476,5.63,49.064,4.35,95.95,10.14,141.474,15.69,58.58,7.22,113.92,14.03,165.74,16.77,135,7.16,258.09,31.53,388.43,57.34,36.86,7.25,74,14.63,111.87,21.68a8.988,8.988,0,0,0,.03,1.03c-38.08-7.08-75.42-14.47-112.48-21.82-130.27-25.78-253.3-50.11-388.12-57.24-51.9-2.78-107.29-9.56-165.93-16.78-45.36-5.6-92.348-11.38-141.41-15.7-20.27-1.84-41.168-3.79-61.473-5.62-145.347-13.45-295.71-27.4-453.9-18.33-123.49,7.05-255.518,29.14-403.584,67.55-92.629,24.07-177.158,52.42-258.783,79.83-22.181,7.49-43.225,14.5-64.173,21.44-39.818,13.08-80.221,29.24-122.934,46.33-112.547,44.98-240.118,96.02-395.728,103.35-15.437.71-30.606,1.31-45.589,1.71a7.672,7.672,0,0,1,.031-0.93q22.419-.645,45.591-1.72c155.255-7.35,282.592-58.3,394.934-103.23,42.849-17.13,83.219-33.27,123.173-46.37,20.988-6.9,41.889-13.95,64.108-21.4,81.762-27.44,166.145-55.84,258.986-79.89,148.168-38.44,280.335-60.54,404.05-67.61C518.473,1035.76,668.971,1049.67,814.41,1063.15Zm4.709-.93c15.227,1.69,30.367,3.39,45.231,4.98,49.816,5.39,97.454,12.22,143.55,18.81,58.45,8.36,113.64,16.27,165.28,20.03,134.35,9.84,256.65,36.86,386.17,65.45,41.1,9.09,82.69,18.28,125.15,26.99-0.01.35,0.05,0.69,0.06,1.06-42.75-8.76-84.46-17.99-125.85-27.12-129.39-28.61-251.65-55.61-385.94-65.41-51.66-3.77-106.88-11.67-165.35-20.08-45.995-6.55-93.67-13.4-143.384-18.83q-22.481-2.37-45.244-4.93c-151.238-16.65-307.571-33.88-472.542-24.66-124.428,6.97-257,29.81-405.262,69.83-95.205,25.72-185.4,57.51-264.949,85.55-20.259,7.15-39.307,13.84-58.439,20.44-38.989,13.57-78.583,30.08-120.4,47.61-113.147,47.33-241.5,100.98-398.952,108.43-9.828.45-19.421,0.81-29.016,1.14,0-.33.029-0.65,0.026-0.97,9.6-.35,19.186-0.71,28.979-1.16,157.141-7.41,285.259-60.97,398.2-108.25,41.928-17.52,81.486-34.02,120.645-47.64,19.024-6.61,38.109-13.31,58.332-20.45,79.623-28.05,169.813-59.84,265.158-85.56,148.4-40.08,281.1-62.99,405.739-69.94C511.372,1028.32,667.876,1045.53,819.119,1062.22Zm3.756-.39q15.124,1.935,30.079,3.78c50.5,6.47,98.716,14.34,145.43,21.97,58.306,9.53,113.426,18.52,164.726,23.3,133.97,12.4,255.63,42.06,384.37,73.47,45.26,11.04,90.98,22.17,137.92,32.68,0.03,0.37.05,0.73,0.06,1.09-47.18-10.57-93.19-21.79-138.68-32.9-128.65-31.36-250.16-61.01-383.98-73.39-51.41-4.79-106.55-13.81-165.007-23.3-46.589-7.62-94.8-15.52-145.333-21.91-9.928-1.3-19.942-2.61-29.968-3.87-149.376-19.16-318.828-40.89-490.087-31.52-125.387,6.86-258.5,30.42-406.994,72.12-97.776,27.41-189.778,61.38-270.927,91.36-18.343,6.76-35.537,13.14-52.815,19.4-38.28,13.94-77.017,30.89-118.094,48.78-113.788,49.65-242.636,105.99-402.043,113.48-4.182.2-8.264,0.34-12.377,0.53a8.188,8.188,0,0,0,0-.94c4.114-.18,8.23-0.32,12.375-0.52,159.057-7.53,287.709-63.72,401.3-113.28,41.038-17.94,79.842-34.9,118.23-48.82,17.2-6.35,34.5-12.71,52.772-19.45,81.185-29.98,173.29-63.98,271.062-91.42,148.659-41.74,282.017-65.35,407.6-72.2C503.973,1020.91,673.441,1042.63,822.875,1061.83Zm2.991-.04,15.544,2.3c51.235,7.5,100.168,16.44,147.459,25.12,58.171,10.64,113.191,20.7,164.341,26.45,133.59,15.02,254.5,47.29,382.54,81.45,49.32,13.19,99.14,26.46,150.43,38.93,0.03,0.36.06,0.7,0.09,1.06-51.6-12.54-101.67-25.89-151.21-39.07-128-34.16-248.82-66.42-382.26-81.42-51.21-5.77-106.34-15.82-164.527-26.5-47.219-8.65-96.085-17.62-147.336-25.1l-15.606-2.26c-154.337-22.64-329.3-48.23-506.756-38.8-126.293,6.72-260.059,31.06-408.711,74.35-100.368,29.23-194.238,65.49-277.155,97.46-16.259,6.3-31.68,12.25-47.04,18.15-37.534,14.32-75.561,31.64-115.781,49.99-113.291,51.51-241.522,109.82-400.823,118.24a8.119,8.119,0,0,0,0-.91c158.875-8.48,286.944-66.67,400-118.12,40.257-18.33,78.386-35.68,115.951-50.04,15.4-5.87,30.781-11.86,47.081-18.1,82.911-32.01,176.853-68.27,277.253-97.51,148.856-43.35,282.759-67.71,409.209-74.45C496.284,1013.55,671.409,1039.16,825.866,1061.79Zm2.011,0.41,2.019,0.35c51.987,8.54,101.556,18.58,149.392,28.33,58.132,11.77,113,22.88,163.892,29.59,133.21,17.61,253.69,52.44,381.15,89.35,53.14,15.37,106.89,30.93,162.43,45.46a5.009,5.009,0,0,1-.05,1.09c-55.73-14.62-109.73-30.23-163.08-45.66-127.42-36.89-247.76-71.73-380.89-89.3-51.02-6.72-105.88-17.85-164.03-29.64-47.9-9.68-97.332-19.75-149.358-28.33l-2.016-.31c-159.031-26.25-339.315-56.01-522.634-46.41-127.257,6.59-261.5,31.63-410.554,76.59-102.786,31.02-198.625,69.66-283.054,103.67-14.017,5.68-27.769,11.24-41.393,16.69-36.893,14.73-74.244,32.42-113.721,51.14-109.8,51.97-233.583,110.59-387,122.32a9.3,9.3,0,0,0,.029-0.95c152.927-11.71,276.51-70.22,386.147-122.13,39.613-18.74,76.962-36.45,113.853-51.2,13.594-5.4,27.412-11,41.5-16.68,84.426-34.07,180.235-72.64,283.189-103.72,149.191-45,283.635-70.11,411.083-76.71C488.228,1006.18,668.72,1035.93,827.877,1062.2Zm-9.482-1.24c52.664,9.69,102.87,20.83,151.381,31.57,57.964,12.91,112.754,25.06,163.5,32.73,132.88,20.15,252.85,57.58,379.81,97.2,56.86,17.74,114.38,35.72,174.12,52.37,0.01,0.33-.01.69,0,1.06-59.99-16.7-117.78-34.76-174.92-52.58-126.88-39.6-246.72-76.96-379.53-97.1-50.82-7.69-105.64-19.88-163.614-32.77-48.439-10.73-98.613-21.88-151.308-31.54C667.153,1034.21,479.6,999.819,290.8,1009.42c-128.094,6.47-262.947,32.28-412.195,78.89-105.37,32.89-202.934,73.84-288.9,110.03-12.122,5.11-24.18,10.16-35.972,15.1-36.182,15.11-72.9,33.16-111.666,52.24-106.29,52.37-225.713,111.09-373.151,126.01a9.185,9.185,0,0,0,.061-0.97c146.954-14.87,266.175-73.53,372.27-125.76,38.868-19.12,75.549-37.18,111.8-52.31,11.827-4.93,23.75-9.96,35.967-15.15,86.041-36.13,183.531-77.11,289.106-110.06,149.383-46.65,284.446-72.47,412.817-78.96C479.925,998.83,667.59,1033.29,818.4,1060.96Zm-11.446-1.56c53.42,10.77,104.164,23.06,153.154,34.91,57.927,13.95,112.577,27.15,163.177,35.81,132.7,22.62,252.14,62.57,378.61,104.93,60.55,20.26,121.82,40.77,185.62,59.6a6.34,6.34,0,0,1-.03,1.15c-64.08-18.97-125.58-39.57-186.33-59.9-126.41-42.26-245.8-82.25-378.38-104.87-50.61-8.65-105.35-21.81-163.247-35.85-49.026-11.83-99.8-24.07-153.269-34.83-176.833-35.77-350.519-67.071-529.283-58.22-129.032,6.39-264.433,32.92-413.913,81.13-108.087,34.84-207.253,78.3-294.825,116.6-10.334,4.53-20.434,8.95-30.5,13.34-35.545,15.48-71.585,33.92-109.711,53.38-102.8,52.53-217.808,111.29-359.115,129.22,0-.33,0-0.64-0.006-0.95,140.92-17.94,255.692-76.6,358.3-128.97,38.155-19.53,74.2-37.94,109.806-53.46,10.007-4.33,20.2-8.83,30.469-13.34,87.6-38.34,186.981-81.78,295.063-116.66,149.611-48.3,285.255-74.84,414.512-81.24C456.118,992.34,629.809,1023.69,806.949,1059.4Zm-11.565-1.54c54.2,11.9,105.56,25.27,155.152,38.23,57.8,15.03,112.334,29.27,162.774,38.79,132.52,25.15,251.56,67.68,377.62,112.7,64.06,22.85,129,46.08,196.82,67.21a5.258,5.258,0,0,0-.01,1.12c-68.15-21.26-133.39-44.5-197.57-67.51-126.05-44.93-245.08-87.46-377.46-112.58-50.47-9.56-105-23.79-162.805-38.83-49.713-12.93-101.037-26.31-155.168-38.22-168.921-37.17-349.072-72.7-531.579-63.932C133.2,1001.12-2.778,1028.37-152.555,1078.25c-110.622,36.84-211.7,82.83-300.829,123.41-8.383,3.82-16.632,7.6-24.885,11.33-34.906,15.85-70.313,34.61-107.767,54.44-99.26,52.57-209.8,111.14-345.091,132.01a4.465,4.465,0,0,0-.006-0.96c134.867-20.89,245.183-79.29,344.172-131.77,37.527-19.82,72.965-38.6,107.97-54.49,8.185-3.73,16.5-7.51,24.855-11.3,89.2-40.62,190.271-86.63,301.1-123.5,149.874-49.96,286.059-77.26,416.226-83.536C445.985,985.063,626.322,1020.67,795.384,1057.86Zm-11.536-1.57c54.88,13.05,106.952,27.58,157.2,41.67,57.626,16.04,112,31.27,162.29,41.75,132.29,27.64,251.08,72.71,376.73,120.38,67.5,25.59,135.98,51.55,207.8,75.12a8.475,8.475,0,0,0,.01,1.13c-72.16-23.62-140.9-49.71-208.61-75.44-125.7-47.63-244.38-92.69-376.54-120.28-50.31-10.48-104.736-25.71-162.384-41.79-50.337-14.07-102.266-28.58-157.112-41.66-168.093-39.99-347.836-78.332-533.952-69.584-130.814,6.121-267.376,34.114-417.345,85.664-113.391,38.92-216.2,87.51-306.952,130.39-6.441,3.06-12.88,6.12-19.26,9.1-34.3,16.21-69.142,35.33-105.958,55.53-95.694,52.49-201.8,110.69-330.914,134.31,0.027-.36.028-0.67,0.022-1.01,128.666-23.6,234.54-81.64,329.975-133.97,36.882-20.23,71.649-39.37,106.158-55.61,6.268-3.03,12.753-6.01,19.156-9.08,90.856-42.91,193.727-91.55,307.111-130.54,150.285-51.54,287.08-79.628,418.068-85.752C435.79,977.841,615.625,1016.22,783.848,1056.29Zm-11.444-1.56c55.537,14.2,108.165,29.88,159,45.07,57.542,17.12,111.838,33.34,161.938,44.74,132.18,30.07,250.64,77.62,376.06,127.98,70.83,28.48,142.8,57.33,218.53,83.37a5.342,5.342,0,0,0,.02,1.2c-76.12-26.18-148.35-55.17-219.51-83.74-125.27-50.34-243.66-97.88-375.8-127.91-50.06-11.39-104.4-27.6-162-44.79-50.814-15.15-103.421-30.82-159.009-45.01C611.5,1014.66,424.749,971.633,235.4,980.277c-131.662,6.068-268.8,34.793-419.076,87.943-116.187,41.09-220.711,92.38-312.976,137.63l-13.55,6.68c-33.806,16.56-67.977,36-104.362,56.58-91.946,52.21-193.626,109.88-316.561,136.03a8.607,8.607,0,0,1-.012-1c122.518-26.15,223.936-83.65,315.718-135.74,36.277-20.61,70.589-40.05,104.36-56.6l13.591-6.65c92.254-45.34,196.983-96.67,313.134-137.78,150.579-53.22,287.855-82,419.763-88.048C425.113,970.7,612.072,1013.7,772.4,1054.73Zm-11.51-1.52c56.285,15.36,109.5,32.2,160.9,48.48,57.438,18.2,111.634,35.36,161.554,47.66,132.09,32.5,250.22,82.6,375.3,135.58,74.21,31.48,149.64,63.39,229.24,92,0.03,0.37,0,.76.01,1.12-80.01-28.66-155.65-60.72-230.13-92.29-125.06-52.96-243.11-103.04-375.1-135.54-49.92-12.3-104.212-29.47-161.647-47.63-51.434-16.28-104.618-33.14-160.855-48.54-159.709-43.67-346.278-89.618-538.624-81.038C89,978.906-48.687,1008.4-199.261,1063.17c-118.982,43.27-225.32,97.33-319.073,145.14l-7.8,3.98c-33.31,16.91-67.023,36.68-102.7,57.6-88.277,51.81-185.481,108.8-302.3,137.25,0-.34-0.01-0.69-0.011-1,116.365-28.44,213.274-85.25,301.388-136.95,35.718-20.91,69.427-40.7,102.667-57.62l7.908-3.99c93.861-47.78,200.3-101.91,319.274-145.2C-49.038,1007.5,88.85,977.964,221.61,972.063,414.326,963.508,601.013,1009.43,760.894,1053.21ZM487.4,986.9c94.887,17.434,185.656,42.494,261.973,64.714,56.992,16.6,110.785,34.64,162.772,52.05,57.379,19.18,111.485,37.31,161.225,50.5,132.05,34.95,249.97,87.52,374.78,143.19,77.45,34.48,156.2,69.58,239.78,100.78a8.14,8.14,0,0,0,0,1.21c-83.97-31.32-162.94-66.56-240.72-101.23-124.72-55.62-242.56-108.13-374.51-143.05-49.81-13.2-103.951-31.36-161.3-50.56-52.073-17.4-105.782-35.45-162.822-52.02-171.475-49.93-355.772-95.031-540.848-86.758C74.766,971.347-63.5,1001.57-214.84,1058.15c-121.766,45.53-229.867,102.51-325.187,152.8l-2.183,1.11c-32.641,17.25-65.827,37.33-100.974,58.61-84.6,51.23-177.311,107.35-287.965,137.9-0.007-.35-0.009-0.68-0.015-1.02,110.238-30.52,202.726-86.48,287.056-137.59,35.114-21.27,68.3-41.35,101.114-58.61l2.113-1.11c95.419-50.36,203.521-107.32,325.422-152.9C-63.847,1000.66,74.614,970.328,207.8,964.8,294.05,960.921,385.5,968.19,487.4,986.9Zm250.493,63.144c57.618,17.79,112.077,37.02,164.708,55.59,57.18,20.19,111.2,39.29,160.779,53.34,131.95,37.38,249.7,92.43,374.29,150.69,80.67,37.73,162.74,76.12,250.25,110.01a7.837,7.837,0,0,1-.02,1.19c-87.84-34.01-170.19-72.51-251.17-110.43-124.58-58.22-242.18-113.27-374.02-150.6-49.66-14.04-103.721-33.14-160.9-53.31-52.683-18.58-107.069-37.78-164.692-55.6-171.305-52.835-355.682-100.59-543.264-92.46-133.894,5.476-272.631,36.439-424.3,94.69-124.715,47.9-237.241,109.29-327.724,158.7-32.219,17.56-64.841,37.96-99.463,59.56-80.761,50.46-169,105.58-273.56,137.94-0.008-.36.022-0.7,0.019-1.04,104.072-32.3,192.026-87.2,272.59-137.55,34.653-21.62,67.273-42.05,99.556-59.65,90.521-49.39,203.182-110.84,327.932-158.71,151.873-58.357,290.954-89.382,425.05-94.93C381.846,949.331,566.441,997.166,737.893,1050.04Zm-11.533-1.57c58.323,19.03,113.43,39.48,166.651,59.2,57.066,21.18,110.969,41.2,160.459,56.09,131.95,39.78,249.43,97.34,373.78,158.23,83.89,41.06,169.24,82.8,260.72,119.47a6.668,6.668,0,0,0-.04,1.17c-91.76-36.75-177.4-78.63-261.59-119.89-124.35-60.83-241.87-118.3-373.72-158.09-49.43-14.92-103.388-34.94-160.473-56.13-53.2-19.72-108.239-40.15-166.559-59.14-171.135-55.73-355.681-106.139-545.619-98.229-134.708,5.4-274.094,37.1-426,96.969-127.52,50.27-243.5,115.66-328.114,163.47-31.757,17.91-63.89,38.61-97.944,60.56-77.046,49.58-160.743,103.41-259.1,137.3a9.57,9.57,0,0,1,.02-1.03c97.943-33.8,181.374-87.51,258.126-136.9,33.985-21.94,66.183-42.69,97.941-60.59,84.784-47.81,200.754-113.32,328.415-163.59,152.1-59.974,291.734-91.714,426.79-97.126C370.383,942.214,555.066,992.733,726.36,1048.47ZM449.411,970.409C549.14,991.8,643.67,1022.54,714.866,1046.95c59.009,20.25,114.706,41.85,168.527,62.82,56.984,22.11,110.816,43.03,160.107,58.8,131.82,42.18,249.23,102.19,373.48,165.71,87.06,44.52,175.7,89.81,271.05,129.27,0,0.41-.06.8-0.03,1.17-95.7-39.55-184.66-85.02-272.07-129.65-124.15-63.52-241.46-123.5-373.27-165.62-49.278-15.78-103.131-36.73-160.082-58.86-53.865-20.9-109.468-42.58-168.578-62.8-162.806-55.8-355.165-111.782-547.835-103.871-135.676,5.216-275.606,37.671-427.775,99.2-120.084,48.55-228.184,109.74-328.537,168.26-31.265,18.22-62.944,39.21-96.507,61.46-73.073,48.51-152.2,101-244.528,136.05-0.007-.36.024-0.69,0.017-1.06,91.847-34.99,170.716-87.28,243.6-135.6,33.494-22.24,65.236-43.3,96.535-61.53,100.452-58.56,208.511-119.81,328.731-168.39,152.443-61.58,292.6-94.161,428.528-99.349C253.985,939.383,346.642,948.338,449.411,970.409Zm253.935,74.941c59.752,21.52,116.02,44.41,170.515,66.5,56.7,23.13,110.441,44.93,159.639,61.54,131.88,44.59,249.12,107.01,373.18,173.17,90.27,48.02,182.16,96.99,281.47,139.33a10.368,10.368,0,0,1-.03,1.24c-99.68-42.48-191.88-91.57-282.46-139.84-124.03-66.08-241.2-128.49-373.01-173.03-49.194-16.63-102.888-38.46-159.8-61.59-54.317-22.08-110.6-44.95-170.347-66.41C539.744,987.671,347.01,928.935,152.315,936.6c-136.561,5.14-277.1,38.366-429.472,101.485-122.493,50.71-229.692,113.33-328.957,173.08-30.847,18.49-62.031,39.82-95.033,62.38-69.265,47.21-143.846,98.1-230.045,134.06,0.029-.35.021-0.72,0.015-1.07,85.756-35.86,160.046-86.55,228.907-133.61,33.036-22.57,64.327-43.87,95.24-62.41,99.292-59.82,206.557-122.46,329.117-173.2,152.668-63.273,293.458-96.461,430.255-101.678C347.49,927.946,540.4,986.8,703.346,1045.35Zm-11.534-1.55c60.512,22.77,117.4,46.89,172.437,70.2,56.664,24.03,110.255,46.79,159.261,64.2,131.94,46.91,249.02,111.87,372.97,180.56,93.46,51.77,188.65,104.55,291.96,149.81,0,0.43.01,0.86,0.03,1.26-103.84-45.42-199.31-98.33-293.02-150.3-123.93-68.73-240.99-133.59-372.74-180.45-49.06-17.5-102.642-40.19-159.448-64.23-54.99-23.35-111.855-47.44-172.294-70.19C528.156,983.39,335.2,921.8,138.405,929.367,1.021,934.372-140.1,968.3-292.8,1033.08c-124.656,52.91-235.381,119.55-329.385,177.83-30.283,18.84-61.117,40.45-93.663,63.32-65.2,45.75-135.183,94.87-215.294,131.37-0.007-.37-0.019-0.76.008-1.13,79.671-36.38,149.333-85.27,214.235-130.84,32.678-22.93,63.481-44.52,93.869-63.36,94-58.35,204.714-125.04,329.508-177.96,153-64.938,294.336-98.853,432.065-103.88C335.624,920.829,528.839,982.493,691.812,1043.8Zm-11.463-1.57c61.119,24.07,118.659,49.45,174.328,73.96,56.516,25.01,109.989,48.56,158.873,66.81,131.88,49.33,248.93,116.67,372.81,187.99,96.6,55.59,195.09,112.29,302.5,160.57,0.02,0.44.05,0.83,0.06,1.23-107.87-48.38-206.69-105.25-303.64-161.02-123.8-71.32-240.77-138.67-372.57-187.93-48.931-18.27-102.373-41.87-158.992-66.86-55.615-24.49-113.172-49.88-174.3-73.87-162.882-63.979-356.226-128.4-554.826-121.033-138.339,4.907-279.907,39.548-433.012,105.973-120.82,52.45-229.794,118.78-329.7,182.64-29.931,19.15-60.213,41-92.3,64.17-61.249,44.13-126.561,91.3-200.7,127.93-0.008-.38.016-0.77,0.007-1.15,73.7-36.52,138.722-83.43,199.644-127.37,32.085-23.21,62.438-45.06,92.368-64.22,99.937-63.89,209.044-130.28,330.036-182.75,71.089-30.945,141.461-55.408,208.954-72.709,76.365-19.642,152.023-30.9,224.731-33.5C323.711,913.737,517.2,978.209,680.349,1042.23ZM398.8,948.418c80.169,20.4,165.951,49.727,270.037,92.272,61.878,25.33,119.968,51.97,176.189,77.76,56.539,25.81,109.843,50.32,158.514,69.35,132.04,51.69,248.88,121.5,372.79,195.42,99.67,59.55,201.58,120.35,313.18,171.67,0.03,0.43.05,0.86,0.08,1.31-112.16-51.48-214.25-112.47-314.35-172.26-123.85-73.9-240.66-143.68-372.6-195.31-48.673-19.03-102.093-43.49-158.538-69.38-56.237-25.79-114.326-52.41-176.236-77.72C504.914,974.835,311.152,907.586,110.708,914.767-28.485,919.566-170.66,955-323.962,1023.04c-122.853,54.54-231.243,122.28-330.123,187.43-29.517,19.4-59.374,41.59-91.009,65.06-57.083,42.3-117.816,87.26-186.026,123.66,0.024-.39.01-0.81,0-1.2,67.77-36.28,128.145-81,184.908-123.04,31.7-23.48,61.63-45.67,91.108-65.11,98.916-65.14,207.4-132.95,330.351-187.57,71.252-31.65,141.871-56.706,209.669-74.382,76.7-20.089,152.721-31.538,225.927-34.067C200.439,910.631,294.605,921.924,398.8,948.418Zm-12.676-5.507c80.946,21.352,167.086,51.936,271.162,96.209,62.562,26.69,121.354,54.56,178.232,81.61,56.348,26.75,109.5,52.03,158.042,71.91,132.03,54.01,248.94,126.26,372.66,202.75,103.04,63.64,208.26,128.69,324.15,183.15,0,0.43.08,0.83,0.05,1.31-116.33-54.63-221.92-119.83-325.29-183.79-123.7-76.43-240.56-148.66-372.491-202.61-48.525-19.86-101.783-45.17-158.133-71.92-56.786-27.03-115.587-54.96-178.138-81.57C502.678,974.6,300.3,900.473,96.936,907.523-43.254,912.179-186.049,948.314-339.543,1018c-125.185,56.79-237.357,129.05-330.583,192.22-29.022,19.73-58.534,42.18-89.788,65.91-52.839,40.23-108.834,82.85-171.164,118.62-0.013-.42.01-0.82,0-1.2,61.855-35.62,117.529-77.99,170.151-117.99,31.219-23.73,60.725-46.23,89.818-65.95,93.259-63.19,205.461-135.48,330.78-192.32,71.4-32.475,142.17-58.043,210.2-76.183,77.072-20.484,153.457-32.13,227.1-34.548C187.023,903.42,281.642,915.308,386.124,942.911ZM645.77,1037.56c63.307,27.98,122.644,57.2,180.132,85.44,56.246,27.67,109.3,53.8,157.667,74.41,132.091,56.37,248.981,131.05,372.581,210.18,106.38,67.94,215.05,137.39,335.36,194.99,0.03,0.43.05,0.88,0.08,1.31-120.78-57.8-229.81-127.44-336.49-195.59-123.62-79.11-240.38-153.72-372.448-210.04-48.389-20.66-101.477-46.79-157.756-74.42-57.335-28.29-116.83-57.51-180.03-85.47C491.018,970.435,288.076,893.389,83.021,900.245c-139.053,4.49-286.47,42.454-438.145,112.735C-484.557,1073-599.952,1149.76-686.056,1210c-28.943,20.11-58.33,43.04-89.454,67.28-48.332,37.73-99.366,77.53-155.531,112.07,0.023-.4.008-0.83,0.028-1.26,55.691-34.4,106.341-73.89,154.419-111.39,31.123-24.26,60.511-47.17,89.418-67.29,86.275-60.28,201.726-137.16,331.263-197.19,71.535-33.13,142.443-59.305,210.743-77.808C-67.764,913.5,9.019,901.659,83.081,899.249,288.537,892.393,491.81,969.564,645.77,1037.56Zm-11.528-1.53c64,29.28,124.034,59.83,182.13,89.38,56.015,28.53,109,55.44,157.2,76.83,132.2,58.68,249.02,135.79,372.64,217.48,109.74,72.42,221.87,146.45,346.81,207.25,0.04,0.48.06,0.95,0.07,1.35-125.34-60.99-237.91-135.28-347.99-207.92-123.58-81.64-240.36-158.73-372.452-217.35-48.23-21.4-101.189-48.37-157.256-76.88-58.075-29.52-118.108-60.07-182.038-89.33C479.222,966.325,275.9,886.262,69.141,892.965-70.773,897.3-218.764,936.037-370.806,1007.98c-130.886,61.98-245.774,140.39-331.319,201.82-28.425,20.35-57.4,43.49-88.039,67.99-44.1,35.28-90.377,72.3-140.785,105.42,0.017-.45,0-0.89.021-1.31,49.943-32.93,95.869-69.65,139.683-104.66,30.533-24.5,59.577-47.67,88.136-68.07,85.549-61.4,200.528-139.93,331.552-201.92,71.691-33.9,142.741-60.664,211.445-79.594,77.6-21.332,154.786-33.347,229.284-35.626C276.445,885.275,480,965.464,634.242,1036.03Zm-11.5-1.58c64.745,30.69,125.415,62.51,184.155,93.37,55.847,29.35,108.687,57.09,156.673,79.24,132.331,60.98,249.071,140.56,372.731,224.69,113.2,77.16,228.92,155.97,358.64,220.13a10.62,10.62,0,0,0,.16,1.34c-130.25-64.28-246.37-143.35-359.96-220.71-123.58-84.22-240.25-163.67-372.461-224.66-48.092-22.17-100.933-49.93-156.885-79.27-58.647-30.82-119.349-62.75-183.973-93.31C467.426,962.194,263.578,879.17,55.3,885.709-85.438,889.9-234.039,929.419-386.28,1002.97c-132.541,64-247,144.03-331.78,206.59-28.11,20.63-56.606,43.99-86.831,68.74-40.229,32.99-81.356,66.7-125.943,97.79,0.021-.42.006-0.85-0.01-1.29,44.315-31.01,85.476-64.73,124.876-97.03,30.115-24.78,58.677-48.18,86.9-68.78,84.882-62.62,199.3-142.68,331.971-206.75,71.669-34.687,143.007-61.991,211.885-81.242,78.008-21.77,155.654-34.014,230.608-36.29C264.166,878.217,468.219,961.333,622.741,1034.45Zm-287.4-113.528c83.646,25.263,171.383,60.859,275.924,111.978,65.352,31.98,126.786,65.23,186.076,97.38,55.787,30.18,108.382,58.66,156.278,81.57,132.265,63.24,248.835,145.17,372.265,231.92,116.85,82.13,236.43,166.18,371.48,233.68,0.07,0.47.07,0.92,0.14,1.4-135.58-67.67-255.5-152-372.78-234.33-123.34-86.78-239.9-168.62-372.026-231.86-47.972-22.94-100.652-51.42-156.323-81.65-59.391-32.11-120.718-65.34-186.123-97.34C455.663,958.069,251.28,872.105,41.378,878.4c-141.543,4.161-290.725,44.422-443.273,119.54C-537.41,1064.69-656.371,1150.55-734.063,1209.32c-27.665,20.85-55.706,44.5-85.484,69.48-35.748,29.96-72.228,60.56-111.128,89.34l-0.017-1.35c38.7-28.7,75.018-59.18,109.959-88.55,29.776-25,57.893-48.6,85.587-69.5,77.722-58.81,196.817-144.72,332.43-211.531,71.83-35.408,143.346-63.287,212.561-82.947,78.3-22.242,156.254-34.592,231.737-36.823C133.362,874.643,229.443,888.856,335.337,920.922Zm-12.713-5.541c84.323,26.275,172.379,63.1,277.1,115.959,66.2,33.41,128.142,68,188.075,101.45,55.635,30.98,108.114,60.29,155.812,83.89,132.465,65.54,249.1,149.9,372.555,239.23,120.49,87.19,243.94,176.41,384.11,247.33,0.1,0.43.08,0.9,0.22,1.36-140.81-71.04-264.62-160.56-385.55-248-123.37-89.28-240-173.64-372.313-239.15-47.736-23.62-100.282-52.89-155.8-83.95-59.963-33.39-121.944-68.02-188.1-101.37-154.918-78.175-359.769-167.1-571.166-161.007-142.5,4.063-292.228,45.058-445.079,121.784C-554.6,1061.75-672.843,1149.28-750.026,1209.12c-27.289,21.09-55.028,44.91-84.258,70.08-30,25.78-62.036,53.32-96.279,79.97,0.019-.44.038-0.88,0.058-1.31,33.169-25.94,64.63-53.02,95.077-79.16,29.295-25.21,57-49.05,84.285-70.15,77.14-59.89,195.586-147.46,332.782-216.325,72.018-36.2,143.747-64.653,213.16-84.726,78.647-22.593,156.991-35.174,232.83-37.352C119.884,867.518,216.409,882.3,322.624,915.381Zm-12.636-5.473c84.885,27.206,173.247,65.306,278.232,119.922,66.359,34.48,128.627,70.23,188.778,104.79,55.9,32.09,108.658,62.4,156.636,86.9,131.986,67.79,248.376,154.3,371.516,245.81,124.7,92.77,252.53,187.73,398.76,262.29,0.05,0.44.12,0.92,0.14,1.35-146.75-74.64-274.98-169.91-400.07-262.94-123.12-91.53-239.42-178.03-371.36-245.74-48.033-24.51-100.787-54.83-156.672-86.9-60.171-34.6-122.353-70.36-188.76-104.79-155.236-80.747-360.669-172.711-573.5-166.739-142.905,3.908-293.175,45.639-446.781,124.016-106.018,54.4-211.77,124.623-332.939,221-26.875,21.31-54.2,45.36-83.055,70.77-25.546,22.5-52.621,46.33-81.244,69.77,0.016-.45.031-0.93,0.047-1.39,27.719-22.79,54.25-46.17,80.052-68.88,28.883-25.44,56.18-49.47,83.12-70.83,121.2-96.43,227.046-166.72,333.166-221.164,72.294-36.831,144.193-65.919,213.747-86.288,79.005-23.132,157.751-35.869,233.982-38C106.465,860.3,203.311,875.716,309.988,909.908Zm-12.727-5.481c85.153,28.133,173.941,67.48,279.437,123.8,66.929,35.9,129.677,72.91,190.429,108.72,55.86,32.91,108.643,64.08,156.536,89.35,132.5,70.2,249.007,159.25,372.447,253.52,128.55,98.15,260.26,198.74,412.08,276.6a11.965,11.965,0,0,0,.25,1.44c-152.4-77.97-284.61-178.9-413.49-277.42-123.39-94.19-239.96-183.27-372.3-253.39-47.948-25.3-100.78-56.42-156.624-89.36C705.361,1101.9,642.541,1064.88,575.7,1029,419.737,945.744,213.487,850.894-.2,856.552c-143.862,3.81-294.818,46.282-448.472,126.334C-555.508,1038.65-661.434,1110.39-782,1208.64c-26.465,21.55-53.422,45.77-81.794,71.4-21.089,18.96-43.191,38.84-66.317,58.66a9.389,9.389,0,0,1,.04-1.45c22.285-19.22,43.949-38.67,65.068-57.68,28.4-25.65,55.393-49.89,81.892-71.44,120.66-98.32,226.65-170.12,333.621-225.97,72.2-37.644,144.356-67.237,214.314-88.044C-155.83,870.576-76.789,857.678-.061,855.6,92.985,853.152,190.245,869.123,297.261,904.427ZM759.566,1140.61c54.973,33.28,106.933,64.74,154.079,90.52,132.915,72.47,249.785,164.11,373.425,261.15,132.92,104.2,268.51,210.47,426.3,291.68,0.09,0.48.2,0.95,0.3,1.46-158.48-81.32-294.38-187.99-427.62-292.55-123.75-96.92-240.54-188.54-373.388-261.01-47.234-25.77-99.157-57.23-154.292-90.54C538.4,1008.04,264.528,842.219-14,849.32c-326.886,8.288-603.938,208.89-784,359.11-26.09,21.75-52.605,46.16-80.7,72.01-16.458,15.11-33.51,30.83-51.151,46.62a11.335,11.335,0,0,1,0-1.52c17.037-15.24,33.647-30.56,49.977-45.56,28.1-25.87,54.609-50.31,80.662-72.08,121.981-101.73,234.4-178.79,343.689-235.78,70.88-36.952,141.7-65.958,210.7-86.309,77.8-22.965,155.443-35.53,230.927-37.462C265.2,841.2,539.306,1007.23,759.566,1140.61Z" transform="translate(0 -848.125)"/>
</svg>
